HIERARCHY
ROOT hips
{
	OFFSET -0.003675 0.299928 -0.021708
	CHANNELS 6 Xposition Yposition Zposition Xrotation Yrotation Zrotation
	JOINT LowerBack
	{
		OFFSET 0.000919 0.177588 0.009275
		CHANNELS 3 Xrotation Yrotation Zrotation
		JOINT spine
		{
			OFFSET 0.000919 0.177588 0.009275
			CHANNELS 3 Xrotation Yrotation Zrotation
			JOINT chest
			{
				OFFSET 0.000456 0.100015 0.004638
				CHANNELS 3 Xrotation Yrotation Zrotation
				JOINT neck
				{
					OFFSET 0.000456 0.100015 0.004638
					CHANNELS 3 Xrotation Yrotation Zrotation
					JOINT head
					{
						OFFSET 0.000924 0.155147 0.009274
						CHANNELS 6 Xposition Yposition Zposition Xrotation Yrotation Zrotation
						End Site
						{
							OFFSET 0.000000 0.153400 0.000000
						}
					}
				}
				JOINT shoulder.L
				{
					OFFSET 0.019937 0.078966 0.057518
					CHANNELS 6 Xposition Yposition Zposition Yrotation Xrotation Zrotation
					JOINT upper_arm.L
					{
						OFFSET 0.177024 -0.020465 -0.095062
						CHANNELS 6 Xposition Yposition Zposition Xrotation Yrotation Zrotation
						JOINT forearm.L
						{
							OFFSET 0.247100 -0.135500 -0.061800
							CHANNELS 3 Xrotation Yrotation Zrotation
							JOINT hand.L
							{
								OFFSET 0.217000 -0.143000 0.039300
								CHANNELS 3 Xrotation Yrotation Zrotation
								JOINT palm.01.L
								{
									OFFSET 0.021770 -0.038291 0.012954
									CHANNELS 6 Xposition Yposition Zposition Yrotation Xrotation Zrotation
									JOINT f_index.01.L
									{
										OFFSET 0.053215 -0.044137 0.008236
										CHANNELS 3 Xrotation Yrotation Zrotation
										JOINT f_index.02.L
										{
											OFFSET 0.036108 -0.024723 -0.010656
											CHANNELS 3 Xrotation Yrotation Zrotation
											JOINT f_index.03.L
											{
												OFFSET 0.021342 -0.014948 -0.010846
												CHANNELS 3 Xrotation Yrotation Zrotation
												End Site
												{
													OFFSET 0.015600 -0.009860 -0.013421
												}
											}
										}
									}
									JOINT thumb.01.L
									{
										OFFSET -0.009090 -0.002348 -0.024223
										CHANNELS 6 Xposition Yposition Zposition Xrotation Yrotation Zrotation
										JOINT thumb.02.L
										{
											OFFSET 0.019713 -0.035076 -0.011120
											CHANNELS 3 Xrotation Yrotation Zrotation
											JOINT thumb.03.L
											{
												OFFSET 0.024877 -0.021748 -0.005176
												CHANNELS 3 Xrotation Yrotation Zrotation
												End Site
												{
													OFFSET 0.016125 -0.013029 -0.001569
												}
											}
										}
									}
								}
								JOINT palm.02.L
								{
									OFFSET 0.032823 -0.025104 0.012281
									CHANNELS 6 Xposition Yposition Zposition Yrotation Xrotation Zrotation
									JOINT f_middle.01.L
									{
										OFFSET 0.055723 -0.038469 0.008037
										CHANNELS 3 Xrotation Yrotation Zrotation
										JOINT f_middle.02.L
										{
											OFFSET 0.038167 -0.027473 -0.015582
											CHANNELS 3 Xrotation Yrotation Zrotation
											JOINT f_middle.03.L
											{
												OFFSET 0.021707 -0.016587 -0.017037
												CHANNELS 3 Xrotation Yrotation Zrotation
												End Site
												{
													OFFSET 0.014112 -0.010584 -0.014294
												}
											}
										}
									}
								}
								JOINT palm.03.L
								{
									OFFSET 0.039230 -0.011402 0.008390
									CHANNELS 6 Xposition Yposition Zposition Yrotation Xrotation Zrotation
									JOINT f_ring.01.L
									{
										OFFSET 0.061796 -0.031470 0.007910
										CHANNELS 3 Xrotation Yrotation Zrotation
										JOINT f_ring.02.L
										{
											OFFSET 0.033092 -0.023401 -0.019127
											CHANNELS 3 Xrotation Yrotation Zrotation
											JOINT f_ring.03.L
											{
												OFFSET 0.021392 -0.015362 -0.017824
												CHANNELS 3 Xrotation Yrotation Zrotation
												End Site
												{
													OFFSET 0.008670 -0.007297 -0.014686
												}
											}
										}
									}
								}
								JOINT palm.04.L
								{
									OFFSET 0.043417 0.002450 0.002889
									CHANNELS 6 Xposition Yposition Zposition Yrotation Xrotation Zrotation
									JOINT f_pinky.01.L
									{
										OFFSET 0.069986 -0.026156 0.003627
										CHANNELS 3 Xrotation Yrotation Zrotation
										JOINT f_pinky.02.L
										{
											OFFSET 0.018520 -0.012813 -0.016429
											CHANNELS 3 Xrotation Yrotation Zrotation
											JOINT f_pinky.03.L
											{
												OFFSET 0.013822 -0.009796 -0.014947
												CHANNELS 3 Xrotation Yrotation Zrotation
												End Site
												{
													OFFSET 0.007238 -0.006103 -0.011657
												}
											}
										}
									}
								}
							}
						}
					}
				}
				JOINT shoulder.R
				{
					OFFSET -0.016662 0.078957 0.057696
					CHANNELS 6 Xposition Yposition Zposition Yrotation Xrotation Zrotation
					JOINT upper_arm.R
					{
						OFFSET -0.176972 -0.020537 -0.095144
						CHANNELS 6 Xposition Yposition Zposition Xrotation Yrotation Zrotation
						JOINT forearm.R
						{
							OFFSET -0.247100 -0.135500 -0.061800
							CHANNELS 3 Xrotation Yrotation Zrotation
							JOINT hand.R
							{
								OFFSET -0.217000 -0.143000 0.039300
								CHANNELS 3 Xrotation Yrotation Zrotation
								JOINT palm.01.R
								{
									OFFSET -0.021773 -0.038278 0.012988
									CHANNELS 6 Xposition Yposition Zposition Yrotation Xrotation Zrotation
									JOINT f_index.01.R
									{
										OFFSET -0.053212 -0.044139 0.008249
										CHANNELS 3 Xrotation Yrotation Zrotation
										JOINT f_index.02.R
										{
											OFFSET -0.036049 -0.024835 -0.010634
											CHANNELS 3 Xrotation Yrotation Zrotation
											JOINT f_index.03.R
											{
												OFFSET -0.021371 -0.014881 -0.010866
												CHANNELS 3 Xrotation Yrotation Zrotation
												End Site
												{
													OFFSET -0.015584 -0.009883 -0.013422
												}
											}
										}
									}
									JOINT thumb.01.R
									{
										OFFSET 0.009113 -0.002381 -0.024211
										CHANNELS 6 Xposition Yposition Zposition Xrotation Yrotation Zrotation
										JOINT thumb.02.R
										{
											OFFSET -0.019694 -0.035097 -0.011088
											CHANNELS 3 Xrotation Yrotation Zrotation
											JOINT thumb.03.R
											{
												OFFSET -0.024867 -0.021762 -0.005168
												CHANNELS 3 Xrotation Yrotation Zrotation
												End Site
												{
													OFFSET -0.016120 -0.013036 -0.001565
												}
											}
										}
									}
								}
								JOINT palm.02.R
								{
									OFFSET -0.032828 -0.025095 0.012286
									CHANNELS 6 Xposition Yposition Zposition Yrotation Xrotation Zrotation
									JOINT f_middle.01.R
									{
										OFFSET -0.055721 -0.038472 0.008040
										CHANNELS 3 Xrotation Yrotation Zrotation
										JOINT f_middle.02.R
										{
											OFFSET -0.038101 -0.027593 -0.015557
											CHANNELS 3 Xrotation Yrotation Zrotation
											JOINT f_middle.03.R
											{
												OFFSET -0.021730 -0.016530 -0.017054
												CHANNELS 3 Xrotation Yrotation Zrotation
												End Site
												{
													OFFSET -0.014096 -0.010608 -0.014293
												}
											}
										}
									}
								}
								JOINT palm.03.R
								{
									OFFSET -0.039192 -0.011488 0.008390
									CHANNELS 6 Xposition Yposition Zposition Yrotation Xrotation Zrotation
									JOINT f_ring.01.R
									{
										OFFSET -0.061839 -0.031387 0.007876
										CHANNELS 3 Xrotation Yrotation Zrotation
										JOINT f_ring.02.R
										{
											OFFSET -0.033068 -0.023437 -0.019125
											CHANNELS 3 Xrotation Yrotation Zrotation
											JOINT f_ring.03.R
											{
												OFFSET -0.021371 -0.015393 -0.017822
												CHANNELS 3 Xrotation Yrotation Zrotation
												End Site
												{
													OFFSET -0.008654 -0.007321 -0.014684
												}
											}
										}
									}
								}
								JOINT palm.04.R
								{
									OFFSET -0.043421 0.002443 0.002845
									CHANNELS 6 Xposition Yposition Zposition Yrotation Xrotation Zrotation
									JOINT f_pinky.01.R
									{
										OFFSET -0.069983 -0.026169 0.003599
										CHANNELS 3 Xrotation Yrotation Zrotation
										JOINT f_pinky.02.R
										{
											OFFSET -0.018501 -0.012842 -0.016428
											CHANNELS 3 Xrotation Yrotation Zrotation
											JOINT f_pinky.03.R
											{
												OFFSET -0.013806 -0.009821 -0.014946
												CHANNELS 3 Xrotation Yrotation Zrotation
												End Site
												{
													OFFSET -0.007226 -0.006121 -0.011655
												}
											}
										}
									}
								}
							}
						}
					}
				}
			}
		}
	}
	JOINT pelvis.L
	{
		OFFSET 0.000000 0.000000 0.000000
		CHANNELS 6 Xposition Yposition Zposition Xrotation Yrotation Zrotation
		JOINT thigh.L
		{
			OFFSET 0.101675 0.001054 -0.000000
			CHANNELS 3 Xrotation Yrotation Zrotation
			JOINT shin.L
			{
				OFFSET 0.000000 -0.534800 0.041000
				CHANNELS 3 Xrotation Yrotation Zrotation
				JOINT foot.L
				{
					OFFSET 0.000000 -0.452000 -0.044800
					CHANNELS 3 Xrotation Yrotation Zrotation
					JOINT toe.L
					{
						OFFSET -0.000000 -0.068500 0.109600
						CHANNELS 3 Xrotation Yrotation Zrotation
						End Site
						{
							OFFSET -0.000000 0.000000 0.067200
						}
					}
				}
				JOINT heel.L
				{
					OFFSET 0.000000 -0.452000 -0.044800
					CHANNELS 3 Xrotation Yrotation Zrotation
					JOINT heel.02.L
					{
						OFFSET -0.038000 -0.085200 0.016200
						CHANNELS 6 Xposition Yposition Zposition Xrotation Yrotation Zrotation
						End Site
						{
							OFFSET 0.080000 -0.000000 0.000000
						}
					}
				}
			}
		}
	}
	JOINT pelvis.R
	{
		OFFSET 0.000000 0.000000 0.000000
		CHANNELS 6 Xposition Yposition Zposition Xrotation Yrotation Zrotation
		JOINT thigh.R
		{
			OFFSET -0.094325 0.001054 0.000000
			CHANNELS 3 Xrotation Yrotation Zrotation
			JOINT shin.R
			{
				OFFSET 0.000000 -0.534800 0.041000
				CHANNELS 3 Xrotation Yrotation Zrotation
				JOINT foot.R
				{
					OFFSET 0.000000 -0.452000 -0.044800
					CHANNELS 3 Xrotation Yrotation Zrotation
					JOINT toe.R
					{
						OFFSET -0.000000 -0.068500 0.109600
						CHANNELS 3 Xrotation Yrotation Zrotation
						End Site
						{
							OFFSET -0.000000 0.000000 0.067200
						}
					}
				}
				JOINT heel.R
				{
					OFFSET 0.000000 -0.452000 -0.044800
					CHANNELS 3 Xrotation Yrotation Zrotation
					JOINT heel.02.R
					{
						OFFSET 0.038000 -0.085200 0.016200
						CHANNELS 6 Xposition Yposition Zposition Xrotation Yrotation Zrotation
						End Site
						{
							OFFSET -0.080000 0.000000 -0.000000
						}
					}
				}
			}
		}
	}
}
MOTION
Frames: 4
Frame Time: 0.041667
-0.005602 0.287205 -0.029152 5.648227 2.162991 1.195006 -0.000001 -0.000000 0.000000 0.000001 -0.000000 0.000000 -0.000000 -0.000000 0.000000 -0.000000 -0.000000 -0.000000 0.000924 0.155147 0.009274 4.282344 -0.002919 -1.694392 0.019937 0.078966 0.057518 6.021243 4.760383 27.660673 0.177025 -0.020465 -0.095062 2.437450 11.648476 -61.151435 -54.744004 -17.685552 -45.673154 0.000000 0.000001 -0.000004 0.021770 -0.038291 0.012954 0.000003 0.000001 0.000001 0.000001 0.000001 -0.000000 -0.000000 0.000003 0.000003 0.000003 0.000003 -0.000000 -0.009090 -0.002348 -0.024224 -0.000000 -0.000003 0.000000 0.000001 0.000001 0.000003 0.000002 -0.000001 0.000001 0.032823 -0.025104 0.012281 0.000003 -0.000001 0.000002 0.000004 0.000003 -0.000005 -0.000003 0.000000 0.000001 0.000000 0.000001 0.000003 0.039230 -0.011402 0.008390 0.000002 0.000001 0.000008 0.000001 0.000000 -0.000002 -0.000004 0.000003 -0.000001 -0.000002 -0.000004 0.000002 0.043417 0.002450 0.002889 0.000002 -0.000002 -0.000005 -0.000003 -0.000000 -0.000004 0.000001 0.000005 0.000001 -0.000001 -0.000001 0.000001 -0.016662 0.078956 0.057696 0.035067 3.914389 -27.306490 -0.176972 -0.020537 -0.095144 -6.819263 -11.119898 57.508116 -27.856418 28.358583 12.173148 0.000003 0.000000 0.000002 -0.021773 -0.038278 0.012988 0.000000 -0.000003 -0.000002 0.000001 -0.000001 0.000000 -0.000000 -0.000000 -0.000001 -0.000003 0.000000 0.000003 0.009114 -0.002381 -0.024211 0.000001 -0.000003 0.000002 -0.000003 -0.000001 0.000002 0.000000 0.000001 -0.000003 -0.032828 -0.025095 0.012286 0.000003 -0.000000 -0.000001 0.000002 0.000003 0.000001 0.000003 -0.000003 -0.000001 0.000003 -0.000003 -0.000004 -0.039192 -0.011488 0.008390 0.000002 0.000001 0.000003 0.000002 0.000004 -0.000005 0.000001 -0.000004 -0.000000 -0.000000 -0.000003 0.000001 -0.043421 0.002443 0.002845 0.000002 -0.000001 0.000002 -0.000004 0.000003 -0.000002 0.000003 -0.000004 -0.000000 -0.000000 0.000001 0.000004 -0.000000 0.000000 -0.000000 -1.387656 -0.020392 -0.765085 -23.796572 0.151031 3.539982 49.079345 0.893781 -9.053899 0.000000 0.000000 -0.000000 -0.000002 -0.000000 0.000001 0.000003 0.000000 0.000001 -0.038000 -0.085200 0.016200 -0.000004 -0.000002 0.000001 -0.000000 -0.000000 -0.000000 -1.358447 -0.020479 0.469124 -17.756608 0.048943 -0.909028 38.947204 -0.859581 8.707545 0.000000 0.000000 0.000000 0.000001 0.000000 0.000000 0.000003 0.000000 0.000001 0.038000 -0.085200 0.016200 -0.000001 0.000000 0.000001 
-0.004610 0.270591 -0.027435 5.602923 1.495009 0.701836 -0.000000 -0.000000 -0.000000 -0.000001 -0.000000 -0.000000 -0.000000 -0.000000 -0.000000 -0.000000 -0.000000 -0.000000 0.000924 0.155148 0.009274 5.363393 -0.004951 -0.545266 0.019937 0.078966 0.057518 4.459317 3.638673 27.349358 0.177025 -0.020465 -0.095062 -2.086387 11.702477 -65.096402 -20.263874 -18.640490 -17.859533 0.000002 -0.000001 -0.000000 0.021770 -0.038291 0.012954 0.000001 0.000005 0.000005 -0.000001 -0.000002 -0.000000 0.000001 -0.000001 0.000005 -0.000000 0.000000 -0.000001 -0.009090 -0.002348 -0.024224 -0.000001 -0.000002 -0.000001 -0.000001 -0.000001 0.000003 -0.000001 -0.000001 0.000001 0.032823 -0.025104 0.012281 -0.000001 0.000004 0.000007 0.000001 -0.000001 -0.000003 -0.000001 -0.000003 0.000003 -0.000003 -0.000002 0.000002 0.039230 -0.011402 0.008390 -0.000000 -0.000000 0.000008 0.000003 -0.000000 -0.000000 -0.000001 0.000003 0.000001 -0.000004 -0.000003 0.000002 0.043417 0.002450 0.002889 -0.000002 0.000003 -0.000000 -0.000004 -0.000003 0.000001 0.000002 0.000003 -0.000003 0.000001 -0.000005 -0.000001 -0.016662 0.078957 0.057696 -1.133249 3.257602 -27.268926 -0.176972 -0.020537 -0.095144 -7.590599 -11.600964 61.664532 -16.284076 17.786052 11.683352 -0.000001 -0.000000 -0.000002 -0.021773 -0.038278 0.012988 0.000003 -0.000003 -0.000002 -0.000001 0.000002 0.000002 -0.000003 -0.000000 0.000001 0.000001 0.000000 0.000001 0.009113 -0.002381 -0.024212 -0.000001 -0.000000 0.000004 -0.000003 -0.000000 0.000000 -0.000000 0.000000 -0.000003 -0.032828 -0.025095 0.012286 0.000001 0.000001 -0.000001 0.000005 -0.000002 -0.000003 0.000001 0.000002 -0.000004 -0.000003 0.000001 -0.000006 -0.039192 -0.011488 0.008390 0.000000 0.000001 0.000003 -0.000000 0.000004 -0.000002 0.000005 -0.000001 -0.000002 -0.000002 -0.000001 -0.000000 -0.043421 0.002443 0.002845 0.000003 -0.000002 0.000005 0.000001 0.000005 -0.000001 -0.000002 -0.000001 -0.000002 -0.000000 -0.000001 0.000001 0.000000 0.000000 0.000000 -1.532498 -0.034123 -0.586042 -19.792328 0.017340 1.685891 42.309569 0.396241 -3.998991 -0.000005 -0.000000 -0.000000 0.000003 -0.000000 0.000000 -0.000002 -0.000000 0.000000 -0.038000 -0.085200 0.016200 -0.000002 0.000000 -0.000000 -0.000000 0.000000 0.000000 -1.500620 -0.034118 0.648157 -14.091389 0.147250 0.543362 33.608250 -0.463705 4.684574 -0.000009 -0.000000 -0.000000 0.000001 0.000000 0.000001 0.000002 0.000000 -0.000000 0.038000 -0.085200 0.016200 -0.000001 0.000001 0.000000 
-0.003894 0.258511 -0.021365 7.778325 -1.490221 0.669615 -0.000001 -0.000000 -0.000000 -0.000000 -0.000000 0.000000 0.000000 -0.000000 -0.000000 -0.000001 -0.000000 0.000000 0.000924 0.155148 0.009274 6.199031 -0.006815 1.517322 0.019937 0.078966 0.057518 3.281640 2.725150 26.999027 0.177024 -0.020466 -0.095062 -5.358598 12.098834 -67.071959 -8.897465 -10.854128 -13.545219 -0.000002 -0.000002 0.000002 0.021770 -0.038291 0.012954 0.000001 -0.000000 -0.000002 -0.000001 0.000001 -0.000000 -0.000003 -0.000001 0.000005 -0.000000 0.000002 0.000002 -0.009090 -0.002348 -0.024223 0.000000 0.000000 -0.000003 0.000001 0.000000 0.000003 0.000003 -0.000000 0.000003 0.032823 -0.025104 0.012281 -0.000001 -0.000001 0.000005 0.000001 0.000003 -0.000003 -0.000003 -0.000002 0.000006 -0.000000 0.000003 0.000003 0.039230 -0.011402 0.008390 0.000003 -0.000000 0.000004 0.000001 0.000003 -0.000000 0.000001 0.000001 0.000001 -0.000003 -0.000004 0.000002 0.043417 0.002450 0.002889 -0.000001 -0.000003 -0.000003 0.000001 0.000000 -0.000004 0.000001 -0.000003 0.000002 -0.000003 -0.000003 -0.000001 -0.016662 0.078956 0.057696 -0.814066 2.302712 -26.408814 -0.176972 -0.020537 -0.095144 -9.481739 -12.222676 64.904897 -8.832723 10.756475 13.878324 0.000001 0.000004 0.000003 -0.021773 -0.038278 0.012988 -0.000003 -0.000002 -0.000002 -0.000000 0.000002 0.000004 -0.000003 0.000001 -0.000009 0.000001 -0.000001 0.000004 0.009113 -0.002381 -0.024211 0.000001 -0.000000 0.000002 -0.000002 -0.000001 -0.000003 -0.000000 0.000001 -0.000006 -0.032828 -0.025095 0.012286 0.000003 0.000001 -0.000001 -0.000003 0.000003 0.000001 0.000001 -0.000000 -0.000004 -0.000002 0.000000 -0.000003 -0.039192 -0.011488 0.008390 -0.000001 0.000003 -0.000002 -0.000001 0.000003 -0.000003 -0.000001 -0.000003 -0.000002 0.000001 -0.000002 -0.000003 -0.043421 0.002443 0.002844 -0.000001 -0.000000 0.000002 -0.000002 0.000004 -0.000001 0.000001 -0.000001 -0.000000 0.000003 0.000005 0.000001 0.000000 0.000000 0.000000 -1.648069 -0.028028 -0.661470 -9.660019 -0.045137 0.321951 34.217052 -0.113469 1.146999 0.000000 0.000000 -0.000000 -0.000001 -0.000000 0.000000 -0.000002 0.000000 -0.000000 -0.038000 -0.085200 0.016200 0.000003 -0.000000 -0.000000 -0.000000 0.000000 0.000000 -1.613563 -0.028067 0.572744 -6.898459 0.208929 1.838007 31.859120 0.013441 -0.134832 -0.000002 -0.000000 -0.000000 0.000001 0.000000 -0.000000 0.000007 -0.000000 -0.000000 0.038000 -0.085200 0.016200 0.000005 -0.000000 -0.000000 
-0.003738 0.255756 -0.021284 6.080400 -0.177455 1.165959 -0.000001 0.000000 0.000000 -0.000000 0.000000 0.000000 -0.000000 0.000000 -0.000000 -0.000000 0.000000 -0.000000 0.000924 0.155147 0.009274 7.587508 -0.009633 2.730970 0.019937 0.078966 0.057518 1.888432 2.473902 27.642691 0.177025 -0.020465 -0.095062 -4.310438 12.109275 -67.869923 -4.711914 -7.226729 -12.594388 0.000000 -0.000000 -0.000001 0.021770 -0.038291 0.012954 0.000000 -0.000000 -0.000004 -0.000001 -0.000001 -0.000000 0.000001 -0.000001 0.000003 -0.000001 0.000005 -0.000005 -0.009090 -0.002348 -0.024224 -0.000000 -0.000002 0.000001 0.000001 -0.000000 0.000005 -0.000000 0.000001 -0.000002 0.032823 -0.025104 0.012281 -0.000001 0.000000 0.000004 0.000000 -0.000002 -0.000005 -0.000004 -0.000002 -0.000000 0.000001 0.000001 0.000001 0.039230 -0.011402 0.008390 0.000000 0.000001 0.000001 -0.000000 0.000003 0.000003 0.000000 0.000002 0.000005 0.000001 -0.000002 0.000001 0.043417 0.002450 0.002889 -0.000001 0.000001 -0.000005 -0.000000 -0.000004 0.000001 0.000007 -0.000003 -0.000004 -0.000001 0.000001 -0.000000 -0.016662 0.078957 0.057696 -3.524717 2.215693 -25.684052 -0.176972 -0.020537 -0.095144 -7.352201 -12.100787 65.589548 -5.355313 7.803431 12.481378 -0.000000 0.000002 -0.000000 -0.021773 -0.038278 0.012988 -0.000001 -0.000001 0.000002 -0.000001 0.000000 -0.000003 0.000000 0.000001 -0.000009 -0.000002 0.000004 0.000005 0.009114 -0.002381 -0.024211 0.000002 -0.000003 0.000000 -0.000000 -0.000001 0.000000 -0.000000 0.000001 -0.000003 -0.032828 -0.025095 0.012286 0.000000 0.000002 0.000001 0.000001 0.000002 -0.000001 0.000002 0.000000 -0.000000 -0.000001 0.000002 -0.000001 -0.039192 -0.011488 0.008390 0.000001 0.000004 0.000001 0.000001 0.000001 0.000000 -0.000005 0.000001 -0.000000 -0.000001 0.000001 -0.000001 -0.043421 0.002443 0.002845 0.000001 0.000004 0.000000 -0.000003 0.000005 0.000001 -0.000001 -0.000003 0.000002 -0.000004 0.000002 0.000003 0.000000 0.000000 -0.000000 -1.696225 0.020556 -1.253459 -9.246089 -0.001445 0.868486 34.006317 -0.109477 1.106704 -0.000002 -0.000000 -0.000000 -0.000002 0.000000 -0.000000 0.000000 -0.000000 0.000000 -0.038000 -0.085200 0.016200 0.000002 -0.000000 -0.000000 -0.000000 0.000000 0.000000 -1.659168 0.020128 -0.019288 -4.257788 0.163855 1.447064 32.551329 0.152118 -1.534164 -0.000005 -0.000000 -0.000000 0.000002 -0.000000 -0.000000 0.000003 -0.000000 -0.000000 0.038000 -0.085200 0.016200 -0.000003 -0.000000 -0.000000 
